# xmcd
#
# Track frame offsets: 
#        150
#        12384
#        28778
#        44677
#        63923
#        82479
#        99735
#        114436
#        130753
#        151052
#        172049
#        190065
#
# Disc length: 2783 seconds
#
# Revision: 5
# Processed by: cddbd v1.5.2PL0 Copyright (c) Steve Scherf et al.
# Submitted via: ExactAudioCopy v1.1
#
DISCID=a10add0c
DTITLE=Alex Clare - The Lateness Of The Hour
DYEAR=2011
DGENRE=
TTITLE0=Up All Night
TTITLE1=Treading Water
TTITLE2=Relax My Beloved
TTITLE3=Too Close
TTITLE4=When Doves Cry
TTITLE5=Hummingbird
TTITLE6=Hands Are Clever
TTITLE7=Tightrope
TTITLE8=Whispering
TTITLE9=Love You
TTITLE10=Sanctuary
TTITLE11=I Won't Let You Down
EXTD=
EXTT0=
EXTT1=
EXTT2=
EXTT3=
EXTT4=
EXTT5=
EXTT6=
EXTT7=
EXTT8=
EXTT9=
EXTT10=
EXTT11=
PLAYORDER=
